<?xml version="1.0" encoding="UTF-8" standalone="no"?>
<svg width="100%" height="100%" viewBox="0 0 24 24" version="1.1" xmlns="http://www.w3.org/2000/svg" xmlns:xlink="http://www.w3.org/1999/xlink" style="background-color: #62b7ed; fill: #fff;">
	<path d="M19.1 17.8l-4-4c.8-1.1 1.2-2.5 1-4.1-.4-2.5-2.4-4.6-5.1-4.8-3.5-.4-6.5 2.6-6.1 6.2.2 2.5 2.3 4.7 4.8 5 1.6.2 3-.2 4.1-1l4 4c.2.2.5.2.6 0l.7-.6c.1-.2.1-.5 0-.7zM6.6 10.5c0-2.1 1.8-3.9 3.9-3.9s3.9 1.8 3.9 3.9-1.8 3.9-3.9 3.9-3.9-1.8-3.9-3.9z"></path>
</svg>