<?xml version="1.0" encoding="UTF-8" standalone="no"?>
<svg width="100%" height="100%" viewBox="-6 -6 65 65" version="1.1" xmlns="http://www.w3.org/2000/svg" xmlns:xlink="http://www.w3.org/1999/xlink" style="background-color: #ec94ed; fill: #fff; border: 2px;">
	<g stroke="none" stroke-width="1" fill="none" fill-rule="evenodd">
		<path d="m50 8c0-2.2-1.8-4-4-4h-40c-2.2 0-4 1.8-4 4v36c0 2.2 1.8 4 4 4h40c2.2 0 4-1.8 4-4v-36z m-31 27c0 0.6-0.4 1-1 1h-9c-0.6 0-1-0.4-1-1v-4c0-0.6 0.4-1 1-1h9c0.6 0 1 0.4 1 1v4z m0-10c0 0.6-0.4 1-1 1h-9c-0.6 0-1-0.4-1-1v-4c0-0.6 0.4-1 1-1h9c0.6 0 1 0.4 1 1v4z m0-10c0 0.6-0.4 1-1 1h-9c-0.6 0-1-0.4-1-1v-4c0-0.6 0.4-1 1-1h9c0.6 0 1 0.4 1 1v4z m25 26c0 0.6-0.4 1-1 1h-19c-0.6 0-1-0.4-1-1v-30c0-0.6 0.4-1 1-1h19c0.6 0 1 0.4 1 1v30z" id="Path-1" fill="#FFFFFF"/>
	</g>
</svg>